<svg xmlns="http://www.w3.org/2000/svg" width="32" height="32" viewBox="0 0 32 32">
  <defs>
    <linearGradient id="gradient" x1="0%" y1="0%" x2="100%" y2="100%">
      <stop offset="0%" stop-color="#3b82f6" />
      <stop offset="100%" stop-color="#06b6d4" />
    </linearGradient>
  </defs>
  <rect width="32" height="32" rx="8" fill="url(#gradient)" />
  <path d="M16 8C12.6863 8 10 10.6863 10 14C10 15.7652 10.8036 17.3506 12.0583 18.4162C12.4729 18.7769 12.5133 19.4058 12.1526 19.8204C11.7919 20.235 11.163 20.2754 10.7485 19.9147C9.04245 18.4683 8 16.3393 8 14C8 9.58172 11.5817 6 16 6C20.4183 6 24 9.58172 24 14C24 16.3393 22.9576 18.4683 21.2515 19.9147C20.837 20.2754 20.2081 20.235 19.8474 19.8204C19.4867 19.4058 19.5271 18.7769 19.9417 18.4162C21.1964 17.3506 22 15.7652 22 14C22 10.6863 19.3137 8 16 8Z" fill="white"/>
  <path d="M17 24.4C17 24.9523 16.5523 25.4 16 25.4C15.4477 25.4 15 24.9523 15 24.4V17.2C15 16.6477 15.4477 16.2 16 16.2C16.5523 16.2 17 16.6477 17 17.2V24.4Z" fill="white"/>
</svg>
