<?xml version="1.0" encoding="UTF-8"?>
<svg width="180" height="60" viewBox="0 0 180 60" xmlns="http://www.w3.org/2000/svg">
  <defs>
    <linearGradient id="logoGradient" x1="0%" y1="0%" x2="100%" y2="0%">
      <stop offset="0%" stop-color="#3b82f6" />
      <stop offset="100%" stop-color="#06b6d4" />
    </linearGradient>
  </defs>
  <g fill="none" fill-rule="evenodd">
    <path d="M30 10C18.954 10 10 18.954 10 30s8.954 20 20 20 20-8.954 20-20S41.046 10 30 10z" stroke="url(#logoGradient)" stroke-width="2.5" />
    <path d="M30 15c-9.389 0-17 7.611-17 17s7.611 17 17 17 17-7.611 17-17-7.611-17-17-17z" fill="url(#logoGradient)" fill-opacity=".2" />
    <path d="M30 20c-6.627 0-12 5.373-12 12s5.373 12 12 12 12-5.373 12-12-5.373-12-12-12zm0 4c4.418 0 8 3.582 8 8s-3.582 8-8 8-8-3.582-8-8 3.582-8 8-8z" fill="url(#logoGradient)" />
    <text font-family="Montserrat, sans-serif" font-size="16" font-weight="bold" fill="#ffffff" x="67" y="36">MenteSana</text>
  </g>
</svg> 